<?xml version="1.0" standalone="no"?>
<!DOCTYPE svg PUBLIC "-//W3C//DTD SVG 20010904//EN"
 "http://www.w3.org/TR/2001/REC-SVG-20010904/DTD/svg10.dtd">
<svg version="1.0" xmlns="http://www.w3.org/2000/svg"
 width="1024.000000pt" height="1024.000000pt" viewBox="0 0 1024.000000 1024.000000"
 preserveAspectRatio="xMidYMid meet">
<metadata>
Created by potrace 1.16, written by Peter Selinger 2001-2019
</metadata>
<g transform="translate(0.000000,1024.000000) scale(0.100000,-0.100000)"
fill="#000000" stroke="none">
<path d="M0 5120 l0 -5120 5120 0 5120 0 0 5120 0 5120 -5120 0 -5120 0 0
-5120z m7233 1702 l218 -218 -31 -34 -31 -34 -189 189 -189 189 -238 -234
c-131 -129 -589 -579 -1018 -1000 -849 -834 -919 -902 -1135 -1086 -574 -491
-1114 -807 -1512 -888 -152 -31 -261 -16 -287 40 -36 80 5 145 295 465 245
270 348 411 435 593 62 132 77 189 94 381 23 254 67 439 151 630 200 456 601
773 1082 856 339 57 685 -6 978 -180 158 -94 207 -144 172 -179 -22 -22 -51
-12 -137 47 -149 101 -296 166 -481 212 -81 20 -122 23 -275 23 -200 1 -262
-8 -425 -61 -200 -65 -365 -162 -513 -302 -115 -110 -203 -228 -276 -372 -103
-202 -162 -420 -181 -667 -13 -163 -36 -267 -84 -381 -82 -195 -203 -366 -458
-645 -241 -265 -308 -352 -292 -378 10 -16 153 -4 249 21 421 110 1000 481
1595 1021 127 116 1113 1080 1900 1858 195 193 357 351 360 352 3 0 103 -98
223 -218z m-867 -839 c28 -28 100 -188 143 -318 124 -374 128 -737 12 -1085
-80 -239 -194 -425 -370 -601 -375 -374 -886 -518 -1385 -389 -195 50 -376
140 -536 267 -89 71 -106 93 -90 123 17 32 52 24 117 -28 261 -210 545 -314
858 -315 281 0 523 73 757 229 318 211 526 531 615 947 14 63 18 128 18 287 0
177 -3 221 -24 320 -32 155 -80 301 -141 422 -27 56 -50 107 -50 114 0 12 37
44 52 44 3 0 14 -8 24 -17z"/>
</g>
</svg>
