<?xml version="1.0" encoding="UTF-8"?>
<svg version="1.1" xmlns="http://www.w3.org/2000/svg" width="1024" height="1024">
<path d="M0 0 C0.71283142 0.10183594 1.42566284 0.20367188 2.16009521 0.30859375 C47.61573625 6.83304289 91.90520362 19.73158728 134 38 C135.03447266 38.44843262 136.06894531 38.89686523 137.13476562 39.35888672 C167.08706231 52.46183692 196.52161156 68.75973961 223 88 C223.74121094 88.53302734 224.48242188 89.06605469 225.24609375 89.61523438 C236.4791253 97.70338599 247.37977656 106.12368779 258 115 C258.87833496 115.72968994 258.87833496 115.72968994 259.77441406 116.47412109 C276.85223705 130.69922604 293.93819147 146.03753642 308.3125 163.03515625 C310.39470655 165.4595773 312.57502207 167.78350032 314.75 170.125 C319.98522567 175.87271011 324.75734415 181.91135343 329.49755859 188.06933594 C331.03571744 190.04589755 332.602011 191.99701634 334.17578125 193.9453125 C349.98611573 213.65446576 363.53658934 235.0500038 376 257 C376.72896484 258.26263672 376.72896484 258.26263672 377.47265625 259.55078125 C406.37029125 309.71707561 424.69028984 365.84472917 434.75 422.6875 C434.9365918 423.7285791 435.12318359 424.7696582 435.31542969 425.84228516 C435.81414548 428.80548071 436.26700099 431.77121799 436.68331909 434.74707031 C436.90861585 436.34987532 437.14236354 437.95150224 437.38186646 439.55224609 C440.43134607 460.41827913 440.49774827 481.20869604 440.44604492 502.24902344 C440.436875 506.15581736 440.44375315 510.06201237 440.46655273 513.96875 C440.86884814 583.31709796 426.61312062 650.37275947 399 714 C398.55156738 715.03447266 398.10313477 716.06894531 397.64111328 717.13476562 C384.53816308 747.08706231 368.24026039 776.52161156 349 803 C348.46697266 803.74121094 347.93394531 804.48242188 347.38476562 805.24609375 C339.29661401 816.4791253 330.87631221 827.37977656 322 838 C321.27031006 838.87833496 321.27031006 838.87833496 320.52587891 839.77441406 C306.30077396 856.85223705 290.96246358 873.93819147 273.96484375 888.3125 C271.5404227 890.39470655 269.21649968 892.57502207 266.875 894.75 C261.12728989 899.98522567 255.08864657 904.75734415 248.93066406 909.49755859 C246.95410245 911.03571744 245.00298366 912.602011 243.0546875 914.17578125 C223.34553424 929.98611573 201.9499962 943.53658934 180 956 C179.15824219 956.48597656 178.31648437 956.97195313 177.44921875 957.47265625 C127.28292439 986.37029125 71.15527083 1004.69028984 14.3125 1014.75 C13.2714209 1014.9365918 12.2303418 1015.12318359 11.15771484 1015.31542969 C8.19451929 1015.81414548 5.22878201 1016.26700099 2.25292969 1016.68331909 C0.65012468 1016.90861585 -0.95150224 1017.14236354 -2.55224609 1017.38186646 C-23.41827913 1020.43134607 -44.20869604 1020.49774827 -65.24902344 1020.44604492 C-69.15581736 1020.436875 -73.06201237 1020.44375315 -76.96875 1020.46655273 C-146.31709796 1020.86884814 -213.37275947 1006.61312062 -277 979 C-278.03447266 978.55156738 -279.06894531 978.10313477 -280.13476562 977.64111328 C-310.08706231 964.53816308 -339.52161156 948.24026039 -366 929 C-366.74121094 928.46697266 -367.48242188 927.93394531 -368.24609375 927.38476562 C-379.4791253 919.29661401 -390.37977656 910.87631221 -401 902 C-401.58555664 901.51354004 -402.17111328 901.02708008 -402.77441406 900.52587891 C-419.85223705 886.30077396 -436.93819147 870.96246358 -451.3125 853.96484375 C-453.39470655 851.5404227 -455.57502207 849.21649968 -457.75 846.875 C-462.98522567 841.12728989 -467.75734415 835.08864657 -472.49755859 828.93066406 C-474.03571744 826.95410245 -475.602011 825.00298366 -477.17578125 823.0546875 C-492.98611573 803.34553424 -506.53658934 781.9499962 -519 760 C-519.48597656 759.15824219 -519.97195313 758.31648437 -520.47265625 757.44921875 C-551.65956181 703.3087507 -571.23040533 641.69059594 -580 580 C-580.09817017 579.32243652 -580.19634033 578.64487305 -580.29748535 577.94677734 C-586.90442692 531.89368971 -586.72922192 483.02325679 -580 437 C-579.89816406 436.28716858 -579.79632812 435.57433716 -579.69140625 434.83990479 C-573.16695711 389.38426375 -560.26841272 345.09479638 -542 303 C-541.32735107 301.44829102 -541.32735107 301.44829102 -540.64111328 299.86523438 C-527.53816308 269.91293769 -511.24026039 240.47838844 -492 214 C-491.46697266 213.25878906 -490.93394531 212.51757812 -490.38476562 211.75390625 C-482.29661401 200.5208747 -473.87631221 189.62022344 -465 179 C-464.51354004 178.41444336 -464.02708008 177.82888672 -463.52587891 177.22558594 C-449.30077396 160.14776295 -433.96246358 143.06180853 -416.96484375 128.6875 C-414.5404227 126.60529345 -412.21649968 124.42497793 -409.875 122.25 C-404.12728989 117.01477433 -398.08864657 112.24265585 -391.93066406 107.50244141 C-389.95410245 105.96428256 -388.00298366 104.397989 -386.0546875 102.82421875 C-366.34553424 87.01388427 -344.9499962 73.46341066 -323 61 C-322.15824219 60.51402344 -321.31648438 60.02804688 -320.44921875 59.52734375 C-266.3087507 28.34043819 -204.69059594 8.76959467 -143 0 C-141.98365479 -0.14725525 -141.98365479 -0.14725525 -140.94677734 -0.29748535 C-94.89368971 -6.90442692 -46.02325679 -6.72922192 0 0 Z " fill="#000000" transform="translate(584,4)"/>
<path d="M0 0 C3.40353022 1.47122616 5.61255749 3.36942513 8.21777344 5.99072266 C9.03832214 6.81142242 9.85887085 7.63212219 10.70428467 8.47769165 C11.58046448 9.36419403 12.45664429 10.25069641 13.359375 11.1640625 C14.26375305 12.07127045 15.1681311 12.97847839 16.09991455 13.91317749 C18.49796458 16.31884419 20.88994618 18.73045736 23.28070068 21.14337158 C25.72385171 23.60702344 28.17271206 26.06498577 30.62109375 28.5234375 C35.41933788 33.34373573 40.21182732 38.16969843 45 43 C41.375 48.875 41.375 48.875 38 50 C20.18 32.18 20.18 32.18 2 14 C-1.40521202 15.70260601 -2.98221258 16.73863262 -5.54003906 19.32885742 C-6.21464172 20.00683884 -6.88924438 20.68482025 -7.58428955 21.38334656 C-8.6640506 22.48329704 -8.6640506 22.48329704 -9.765625 23.60546875 C-10.89396759 24.74161369 -10.89396759 24.74161369 -12.04510498 25.90071106 C-14.45153225 28.32494306 -16.85119238 30.75572983 -19.25 33.1875 C-21.63533204 35.60059092 -24.02215052 38.01216121 -26.41204834 40.42073059 C-27.89752375 41.91830564 -29.38032038 43.41854445 -30.85992432 44.92192078 C-34.0411405 48.13336965 -37.23883985 51.25114443 -40.68066406 54.18286133 C-46.24484965 58.97980259 -51.35401259 64.24358251 -56.52787781 69.45271301 C-58.44376469 71.38151763 -60.36289273 73.30704603 -62.28283691 75.23181152 C-66.35805972 79.31838841 -70.42932718 83.40889147 -74.5 87.5 C-79.2220532 92.24575898 -83.94577069 96.98983664 -88.67375183 101.72969055 C-90.55236917 103.61472776 -92.42791748 105.50278098 -94.30334473 107.39099121 C-99.39304952 112.50230091 -104.4768862 117.51402651 -109.97009277 122.19494629 C-114.17225969 125.93163775 -118.08706821 129.98041456 -122.04631042 133.97114563 C-123.69333883 135.63113059 -125.34363952 137.28780235 -126.99475098 138.94372559 C-130.49934639 142.45965651 -133.99997555 145.97951953 -137.5 149.5 C-141.56119008 153.58492585 -145.62406294 157.66814893 -149.69120789 161.74714661 C-151.30392583 163.36626771 -152.91356218 164.98840784 -154.52307129 166.61071777 C-159.26470002 171.37574593 -164.05238728 176.01590146 -169.16369629 180.3885498 C-172.42647104 183.25180112 -175.45183162 186.34940774 -178.5 189.4375 C-179.17998047 190.12126709 -179.85996094 190.80503418 -180.56054688 191.50952148 C-182.70950926 193.67057055 -184.85517279 195.83484726 -187 198 C-189.83033837 200.85716017 -192.66412673 203.71083454 -195.5 206.5625 C-196.45036133 207.52530884 -196.45036133 207.52530884 -197.41992188 208.50756836 C-201.20044258 212.30841978 -205.09603994 215.905432 -209.171875 219.38842773 C-211.02742718 221.02417826 -212.76864664 222.73404559 -214.5 224.5 C-218.16270803 228.2118719 -222.03979429 231.61011518 -226 235 C-227.05482382 235.90739364 -228.10949986 236.81495908 -229.1640625 237.72265625 C-232.16964436 240.3071683 -235.18176572 242.88393362 -238.19628906 245.45800781 C-239.91204316 246.92480572 -241.62417093 248.39574033 -243.3359375 249.8671875 C-250.08101455 255.64577538 -256.97152343 261.19109836 -264.06542969 266.53808594 C-266.26074722 268.19704119 -268.44641684 269.86836814 -270.6328125 271.5390625 C-281.48425358 279.79589415 -292.5081522 287.65883965 -304 295 C-304.70769531 295.45294434 -305.41539062 295.90588867 -306.14453125 296.37255859 C-334.28006777 314.25302638 -368.73165052 335.21097544 -403.25 335.3125 C-404.25160156 335.33666992 -404.25160156 335.33666992 -405.2734375 335.36132812 C-409.91440331 335.36587809 -413.05325673 334.41189866 -417 332 C-419.65235077 328.62428084 -419.47625761 325.15024491 -419 321 C-414.59928 309.69912194 -404.82040541 300.66735866 -396.6953125 291.91015625 C-393.48449978 288.44340919 -390.32353888 284.93453811 -387.171875 281.4140625 C-385.73428685 279.81616776 -384.28645705 278.22742292 -382.828125 276.6484375 C-367.01537042 259.43384297 -352.85118278 240.28683709 -343.1875 218.9375 C-342.770448 218.03765381 -342.770448 218.03765381 -342.3449707 217.11962891 C-337.6224515 206.27149196 -336.52397064 194.73446523 -335.625 183.0625 C-334.51405099 170.07235834 -332.55482045 157.56693457 -329 145 C-328.77973145 144.21915039 -328.55946289 143.43830078 -328.33251953 142.63378906 C-317.67806481 105.97379888 -294.05258798 72.85903941 -260.5703125 53.86328125 C-249.12870132 47.58413734 -237.66946719 42.2197755 -225 39 C-224.20432617 38.79407227 -223.40865234 38.58814453 -222.58886719 38.37597656 C-201.26270615 33.10892235 -176.32929729 32.32205026 -155 38 C-154.22188965 38.19867676 -153.4437793 38.39735352 -152.64208984 38.60205078 C-131.85841692 44.00961331 -111.6295455 52.90438308 -96 68 C-96.875 72.875 -96.875 72.875 -98 74 C-103.11568045 74.11121044 -105.72789054 72.66992413 -109.75 69.5625 C-137.45839329 48.44953822 -174.10058622 41.21865313 -208.25292969 45.71850586 C-242.46527713 51.26443287 -274.71322242 70.2055027 -295.5625 97.9375 C-314.8795768 124.77872744 -323.49521915 156.33776375 -326 188.9375 C-328.76264714 224.65479415 -348.91537977 253.64876619 -372.63671875 279.421875 C-374.58448191 281.54670753 -376.49147074 283.69358899 -378.375 285.875 C-380.92672022 288.8160672 -383.55071138 291.68103033 -386.20556641 294.52929688 C-390.8963359 299.56560836 -395.51952866 304.65007407 -400 309.875 C-400.4444043 310.38571045 -400.88880859 310.8964209 -401.34667969 311.42260742 C-406.6912271 317.54600895 -406.6912271 317.54600895 -409 325 C-370.3419152 328.22748389 -328.30551918 300.05242967 -298 279 C-297.38608398 278.57509277 -296.77216797 278.15018555 -296.13964844 277.71240234 C-282.69159064 268.36544647 -269.70420806 258.33018938 -257 248 C-256.11054688 247.28457031 -255.22109375 246.56914063 -254.3046875 245.83203125 C-248.83412178 241.40529213 -243.52751289 236.84706825 -238.32421875 232.109375 C-236.27957665 230.25373343 -234.21215851 228.43243624 -232.125 226.625 C-227.31024304 222.42900699 -222.61765086 218.0999834 -217.92675781 213.76660156 C-216.44897431 212.4116546 -214.96224377 211.06646031 -213.47167969 209.72558594 C-204.94496143 202.01175388 -196.83674917 193.92106979 -188.75 185.75 C-186.1436506 183.11676782 -183.53378938 180.48708606 -180.921875 177.859375 C-180.34459656 177.27379822 -179.76731812 176.68822144 -179.17254639 176.0848999 C-176.28204386 173.17738649 -173.3399468 170.3970295 -170.22753906 167.72753906 C-165.55797479 163.68877386 -161.22426548 159.33800657 -156.87966919 154.95483398 C-155.40068091 153.46285757 -153.91839498 151.97422447 -152.43530273 150.48632812 C-149.28734751 147.32705235 -146.1433673 144.16383977 -143 141 C-139.35185217 137.32809211 -135.70200656 133.65790443 -132.04788208 129.99194336 C-130.60134931 128.53902092 -129.15790833 127.08307719 -127.71459961 125.62695312 C-123.94739702 121.8458394 -120.19794601 118.10275704 -116.13671875 114.63671875 C-110.82583262 110.07918299 -105.9550419 105.06569445 -101.02770996 100.10287476 C-99.21264434 98.27487821 -97.39432699 96.45017044 -95.57519531 94.6262207 C-91.71395815 90.75363578 -87.85668004 86.87712266 -84 83 C-79.52576995 78.50205396 -75.04986931 74.00579653 -70.56970215 69.51376343 C-68.79079745 67.72844455 -67.01496604 65.94010861 -65.23925781 64.15161133 C-60.30667061 59.1968985 -55.35157896 54.34486289 -50.03051758 49.80343628 C-45.39568346 45.6869351 -41.08940514 41.20988655 -36.71875 36.81640625 C-35.65423228 35.75001915 -34.58949038 34.68385581 -33.52453613 33.61790466 C-30.74736167 30.83694593 -27.97320575 28.05299556 -25.19970703 25.26837158 C-22.35894362 22.4173052 -19.51528128 19.56913331 -16.671875 16.72070312 C-11.1117717 11.14993482 -5.55485982 5.57599681 0 0 Z " fill="#FFFFFF" transform="translate(700,320)"/>
<path d="M0 0 C8.46499881 4.14347934 12.94835122 22.9869442 15.88183594 31.23876953 C30.45948046 74.00709998 29.68412495 120.74223626 9.7890625 161.7265625 C2.14792815 176.95860064 -7.159089 189.76509693 -18.95703125 202 C-20.03017578 203.16789062 -20.03017578 203.16789062 -21.125 204.359375 C-45.68223198 230.34488877 -83.34670754 244.88434152 -118.609375 246.12890625 C-155.28046761 246.66977782 -190.36041457 234.31744594 -217.95703125 210 C-219.33621828 208.37107437 -220.68829118 206.71634909 -221.95703125 205 C-221.29703125 203.35 -220.63703125 201.7 -219.95703125 200 C-214.00353285 200.12403122 -211.6785814 201.86037185 -207.4140625 205.84765625 C-185.86439894 224.72502449 -156.18515826 234.42750923 -127.95703125 236 C-127.19390625 236.04253906 -126.43078125 236.08507812 -125.64453125 236.12890625 C-88.61558787 237.09320165 -53.5042555 221.55788896 -26.91430664 196.36083984 C-0.27615525 170.27229555 14.91447867 132.54941254 15.33544922 95.4128418 C15.42572815 80.18110722 14.81285817 65.84716724 11.04296875 51 C10.82866211 50.12102051 10.61435547 49.24204102 10.39355469 48.33642578 C7.03818211 34.79527516 2.66428662 21.11735002 -4.703125 9.16796875 C-5.95703125 7 -5.95703125 7 -5.83203125 4.3125 C-4.70523814 1.33454678 -3.29349784 0 0 0 Z " fill="#FFFFFF" transform="translate(634.95703125,424)"/>
</svg>
